<?xml version="1.0" standalone="no"?>
<!DOCTYPE svg PUBLIC "-//W3C//DTD SVG 20010904//EN"
 "http://www.w3.org/TR/2001/REC-SVG-20010904/DTD/svg10.dtd">
<svg version="1.0" xmlns="http://www.w3.org/2000/svg"
 width="492.000000pt" height="492.000000pt" viewBox="0 0 492.000000 492.000000"
 preserveAspectRatio="xMidYMid meet">
<metadata>
Created by potrace 1.16, written by Peter Selinger 2001-2019
</metadata>
<g transform="translate(0.000000,492.000000) scale(0.100000,-0.100000)"
fill="#000000" stroke="none">
<path d="M505 4909 c-72 -4 -214 -11 -317 -14 -104 -4 -188 -11 -188 -15 0 -5
42 -7 93 -4 389 17 740 27 1105 34 l427 7 -495 0 c-272 0 -553 -3 -625 -8z"/>
<path d="M1760 4911 l45 -6 -80 -27 c-355 -117 -562 -230 -868 -471 -62 -49
-237 -219 -249 -242 -6 -11 34 23 88 75 54 52 101 97 104 100 145 135 344 267
565 375 190 93 287 127 450 155 118 20 151 22 395 17 179 -3 289 -10 340 -20
41 -8 116 -20 165 -27 50 -7 115 -20 145 -30 30 -10 75 -21 100 -25 52 -9 254
-88 290 -114 14 -9 45 -28 70 -40 25 -13 56 -30 70 -38 14 -7 52 -26 85 -42
33 -15 78 -40 99 -54 21 -15 47 -27 58 -27 11 0 40 -16 66 -35 100 -74 128
-93 152 -105 104 -53 439 -369 540 -510 62 -88 190 -292 190 -305 0 -3 20 -47
45 -99 76 -160 112 -263 144 -416 66 -311 34 -774 -69 -1015 -5 -11 -12 -31
-15 -45 -11 -44 -88 -213 -117 -258 -15 -24 -28 -47 -28 -53 0 -15 -73 -139
-82 -139 -4 0 -8 -5 -8 -10 0 -28 -161 -218 -244 -288 -50 -42 -124 -108 -164
-146 -40 -39 -87 -79 -105 -90 -18 -11 -80 -50 -138 -87 -112 -71 -286 -153
-291 -137 -2 5 -34 -3 -71 -18 -37 -15 -62 -31 -56 -34 7 -5 4 -9 -8 -12 -10
-3 -42 -15 -71 -27 -29 -12 -51 -17 -47 -11 9 14 13 15 -155 -40 -84 -28 -185
-55 -224 -60 -39 -5 -98 -14 -131 -20 -66 -11 -374 -14 -424 -4 -65 13 -25 19
152 22 281 6 494 53 797 179 316 131 532 268 746 473 146 139 260 268 280 317
8 17 20 36 28 40 8 4 35 51 61 103 25 52 50 102 55 110 64 109 160 400 179
540 13 97 9 401 -7 510 -17 116 -58 279 -94 369 -16 41 -27 84 -24 95 6 24
-31 113 -51 120 -8 3 -12 10 -9 15 10 16 -44 102 -62 99 -11 -2 -16 3 -14 15
2 9 -3 17 -10 17 -7 1 -44 45 -82 99 -37 54 -102 135 -143 180 -82 89 -309
293 -360 324 -38 22 -44 42 -11 31 20 -6 21 -5 10 9 -9 11 -23 14 -41 11 -21
-4 -35 1 -60 25 -18 17 -39 31 -47 31 -8 0 -14 7 -14 16 0 8 -4 13 -9 10 -12
-8 -61 17 -61 32 0 6 -4 12 -10 12 -5 0 -10 6 -10 13 0 14 -238 142 -327 175
-38 15 -55 17 -64 8 -9 -8 -11 -7 -6 6 8 22 -31 36 -45 17 -7 -11 -11 -11 -15
-1 -2 6 -9 9 -15 6 -5 -4 -20 -2 -31 4 -68 33 -224 70 -426 103 -84 13 -149
29 -158 37 -11 11 -37 15 -101 13 -348 -5 -439 -9 -457 -18 -11 -5 -60 -15
-110 -22 -49 -7 -119 -21 -155 -31 -36 -10 -101 -29 -145 -41 -104 -30 -292
-123 -389 -193 -75 -53 -211 -193 -386 -396 -147 -171 -260 -367 -319 -555
-43 -134 -45 -143 -83 -355 -31 -172 -33 -200 -33 -395 1 -187 3 -217 22 -277
29 -89 99 -258 139 -333 17 -33 48 -94 69 -135 53 -103 132 -229 240 -385 33
-46 233 -272 275 -310 216 -195 359 -297 555 -397 132 -67 245 -110 383 -144
100 -24 112 -30 106 -47 -3 -10 0 -32 7 -49 10 -25 10 -31 -2 -39 -12 -8 -12
-10 1 -18 25 -17 8 -19 -70 -10 -68 8 -117 23 -130 40 -8 10 -54 14 -67 6 -6
-4 -19 0 -28 9 -9 9 -24 14 -36 11 -44 -12 -226 64 -379 157 -221 135 -391
273 -597 488 -117 121 -150 162 -247 301 -16 23 -46 65 -67 92 -45 61 -217
395 -249 485 -13 36 -26 70 -30 75 -4 6 -22 66 -41 135 l-33 125 1 245 0 245
50 235 c27 129 53 244 58 255 6 15 5 17 -4 9 -7 -6 -26 -56 -42 -110 -17 -54
-41 -134 -54 -176 -63 -204 -68 -250 -73 -596 -3 -301 -2 -331 18 -430 81
-401 175 -634 384 -955 97 -148 155 -219 289 -355 305 -309 723 -543 1142
-638 178 -40 289 -55 475 -61 566 -19 1098 149 1540 486 203 154 353 303 497
493 209 276 369 633 437 978 35 181 41 241 41 460 0 353 -26 502 -142 825
-102 286 -171 414 -365 674 -114 152 -308 338 -483 462 -180 128 -200 140
-380 228 -160 78 -209 97 -375 146 l-119 35 -623 -2 c-343 0 -603 -4 -578 -7z
m1626 -1769 c49 -25 79 -57 99 -106 21 -49 12 -56 -72 -56 -47 0 -63 4 -63 14
0 28 -41 66 -70 66 -61 0 -85 -56 -78 -184 5 -99 22 -120 93 -113 33 3 53 10
60 22 32 54 39 58 93 50 43 -6 52 -10 52 -26 0 -46 -53 -110 -120 -145 -51
-27 -162 -25 -216 3 -107 57 -158 196 -120 327 42 144 209 216 342 148z m562
-29 l-3 -58 -117 -3 -118 -3 0 -39 0 -40 75 0 75 0 0 -55 0 -55 -47 -2 c-27
-1 -59 -2 -73 -3 -22 -1 -25 -6 -28 -43 l-3 -42 125 0 126 0 0 -54 0 -53 -92
-7 c-50 -3 -140 -6 -200 -6 l-108 0 0 73 c0 41 -3 155 -7 255 l-6 181 59 4
c32 2 123 4 202 5 l143 2 -3 -57z m442 35 c93 -48 106 -153 26 -226 l-42 -39
48 -103 c37 -79 45 -106 36 -112 -7 -4 -44 -7 -83 -6 l-70 3 -36 95 c-35 91
-38 95 -69 98 l-32 3 3 -88 c2 -49 0 -94 -5 -101 -4 -8 -33 -12 -77 -12 l-69
0 0 255 0 255 163 0 c149 0 166 -2 207 -22z m-1922 -55 l-3 -58 -117 -3 -118
-3 0 -39 0 -40 75 0 c81 0 82 -1 84 -70 0 -41 -16 -50 -91 -50 l-69 0 3 -37 3
-38 123 -3 122 -3 0 -53 c0 -40 -4 -55 -16 -60 -9 -3 -99 -6 -200 -6 l-184 0
-2 185 c-1 102 -3 215 -3 253 l0 67 90 6 c50 3 139 6 198 7 l108 2 -3 -57z
m446 33 c95 -48 102 -182 11 -242 -14 -9 -25 -20 -25 -25 0 -4 20 -50 45 -101
25 -50 43 -98 40 -105 -3 -10 -24 -13 -81 -11 l-76 3 -37 95 c-33 85 -39 95
-64 98 l-27 3 0 -100 0 -101 -80 0 -80 0 0 256 0 255 168 -3 c140 -2 173 -6
206 -22z m-896 -43 l3 -52 -72 -3 -71 -3 1 -196 c2 -225 9 -209 -95 -209 l-64
0 0 200 0 200 -75 0 -75 0 0 54 c0 44 4 55 18 59 9 3 109 4 222 3 l205 -1 3
-52z m-1067 8 c103 -47 175 -69 304 -91 l100 -17 3 -124 c7 -271 -45 -478
-167 -667 -56 -85 -187 -220 -256 -261 l-57 -35 -57 30 c-111 58 -283 253
-348 394 -29 63 -69 195 -82 265 -15 86 -33 368 -24 376 5 4 46 15 93 24 112
22 218 57 310 104 41 21 80 39 86 40 6 0 49 -16 95 -38z m3340 -602 c56 -19
96 -56 124 -113 57 -116 40 -242 -43 -325 -56 -56 -115 -76 -201 -68 -135 12
-212 103 -213 251 0 119 53 211 146 252 38 16 141 18 187 3z m-463 -29 c24
-13 52 -38 62 -56 28 -44 27 -121 -3 -164 -36 -55 -79 -73 -180 -78 l-89 -5 4
-78 c3 -43 2 -83 -2 -88 -3 -6 -37 -12 -75 -13 l-70 -3 -5 245 c-3 135 -3 251
-1 258 3 11 36 13 160 10 144 -3 159 -5 199 -28z m-804 -12 c8 -18 26 -70 42
-115 15 -46 30 -83 34 -83 3 0 11 21 18 48 7 26 22 78 33 115 l20 68 112 -3
112 -3 0 -250 0 -250 -77 -3 -78 -3 0 162 c0 89 -3 159 -6 156 -4 -3 -28 -75
-53 -159 l-47 -153 -51 -3 -52 -3 -45 144 c-25 78 -46 148 -46 155 0 7 -4 12
-10 12 -6 0 -11 -64 -12 -157 l-3 -158 -55 0 -55 0 -8 245 c-4 135 -5 251 -2
258 3 8 35 12 110 12 l106 0 13 -32z m-762 -225 c5 -287 9 -276 -87 -271 l-60
3 -6 245 c-4 154 -2 250 4 258 6 7 35 12 77 12 l68 0 4 -247z m466 195 l-3
-53 -117 -3 -118 -3 0 -44 0 -45 75 0 75 0 0 -55 0 -55 -75 0 -75 0 0 -46 0
-46 123 3 122 4 0 -55 0 -55 -196 -3 -196 -2 -7 61 c-8 82 -8 434 1 442 3 4
94 7 200 7 l194 0 -3 -52z m-678 -13 l0 -55 -70 0 c-60 0 -70 -3 -70 -17 -1
-10 0 -100 0 -200 l1 -183 -80 0 -81 0 -2 197 -3 197 -70 1 -70 0 -3 44 c-6
75 -17 71 228 71 l220 0 0 -55z"/>
<path d="M800 3030 c-83 -43 -184 -79 -285 -99 l-90 -17 3 -110 c5 -199 38
-358 99 -479 67 -133 178 -258 292 -329 56 -35 71 -31 166 45 208 167 308 403
317 743 l3 140 -110 22 c-125 25 -186 44 -267 85 -32 16 -61 29 -65 29 -4 -1
-33 -14 -63 -30z m122 -49 c86 -39 177 -67 266 -81 l72 -12 0 -118 c0 -218
-42 -372 -142 -522 -61 -91 -132 -162 -205 -204 l-43 -26 -37 23 c-159 96
-279 266 -332 475 -20 75 -42 336 -31 354 3 4 42 15 86 23 84 16 216 64 269
97 17 11 31 20 31 20 1 0 30 -13 66 -29z"/>
<path d="M772 2740 c-23 -10 -44 -25 -47 -32 -3 -7 6 -35 20 -62 14 -27 25
-58 25 -68 0 -15 8 -18 45 -18 l45 0 0 100 c0 97 -1 100 -22 100 -13 0 -42 -9
-66 -20z"/>
<path d="M880 2661 l0 -102 41 3 c41 3 42 4 54 50 6 25 19 57 28 71 16 25 16
26 -18 47 -19 12 -50 24 -70 27 l-35 6 0 -102z"/>
<path d="M777 2533 c-2 -4 -10 -29 -17 -55 -7 -26 -19 -53 -26 -59 -8 -6 -14
-17 -14 -24 0 -14 66 -49 113 -59 l28 -7 -3 103 -3 103 -37 3 c-20 2 -38 -1
-41 -5z"/>
<path d="M880 2435 l0 -105 28 6 c26 6 112 51 112 58 0 2 -11 24 -25 47 -14
24 -25 56 -25 72 0 25 -3 27 -45 27 l-45 0 0 -105z"/>
<path d="M4172 2389 c-33 -13 -52 -67 -52 -151 0 -92 22 -141 64 -146 80 -9
100 24 94 162 -2 80 -6 99 -23 115 -26 25 -54 32 -83 20z"/>
</g>
</svg>
